<?xml version="1.0" encoding="utf-8"?>
<!-- Generator: Adobe Illustrator 26.1.0, SVG Export Plug-In . SVG Version: 6.00 Build 0)  -->
<svg version="1.1" id="Capa_1" xmlns="http://www.w3.org/2000/svg" xmlns:xlink="http://www.w3.org/1999/xlink" x="0px" y="0px"
	 viewBox="0 0 1000 1000" style="enable-background:new 0 0 1000 1000;" xml:space="preserve">
<style type="text/css">
	.st0{fill:#FFFFFF;}
	.st1{fill:#F9BE17;}
	.st2{fill:#775527;}
</style>
<g>
	<path class="st0" d="M606.45,84.33c-1.08,1.2-2.2,2.35-3.23,3.59c-16.37,19.64-32.86,39.19-49.02,59.01
		c-4.21,5.17-8.77,6.75-15.1,5.18c-31.04-7.68-62.18-14.96-93.14-22.96c-9.65-2.5-17.14-0.85-24.84,5.46
		c-22.8,18.7-46.1,36.78-69.08,55.25c-5.27,4.23-10.94,6.32-17.71,6.55c-22.11,0.74-44.19,1.97-66.3,2.61
		c-6.51,0.19-11.35,2.46-15.73,7.13c-12.44,13.28-25.22,26.25-37.71,39.48c-7.26,7.7-15.84,11.55-26.52,10.63
		c-7.57-0.66-15.17-1.03-22.75-1.55c-22.76-1.54-45.52-3.02-68.27-4.68c-9.58-0.7-10.33-0.36-13.88,8.44
		C61.94,311.17,48.67,365.62,45.4,422.52c-2.33,40.44-0.61,80.56,6.44,120.41c9.96,56.29,29.67,109.09,57.84,158.76
		c48.73,85.93,117.22,150.69,207.05,192.43c46.2,21.47,94.83,33.85,145.6,37.6c33.43,2.48,66.75,0.79,99.97-3.65
		c44.97-6.02,88.44-17.38,130.05-35.58c77.8-34.03,139.92-87.12,188.86-155.99c47.91-67.42,72.93-142.54,74.3-225.3
		c0.65-39.32-3.97-78.15-13.49-116.29C907.79,257.66,825.31,159.3,699.76,96.06C679,85.6,657.1,77.68,634.5,71.94
		c-2.03-1.03-4.04-2.1-6.09-3.08c-5.79-2.74-7.47-2.43-12.03,2.35C612.58,75.21,609.68,79.9,606.45,84.33z"/>
	<path class="st1" d="M606.45,84.33c3.23-4.44,6.12-9.13,9.93-13.12c4.56-4.78,6.24-5.09,12.03-2.35c2.05,0.98,4.06,2.05,6.09,3.08
		c-1.83,2.32,0.29,2.58,1.69,3.21c12.56,5.76,25.08,11.56,37.26,18.13c49.61,26.78,92.8,61.45,129.42,104.32
		c26.62,31.16,48.96,65.05,66.47,102.17c24.41,51.74,36.47,106.43,39.2,163.28c1.46,30.42-0.78,60.68-6.56,90.66
		c-7.78,40.39-22,78.35-43.07,113.68c-20.54,34.45-45.76,65.08-75.31,92.24c-24.22,22.26-50.72,41.28-79.6,56.92
		c-57.5,31.13-119.47,46.22-184.35,50.18c-15.84,0.97-31.73,0.53-47.64-0.66c-19.8-1.48-39.27-4.57-58.6-8.87
		c-2.12-0.47-4.64-0.48-5.81-3.31c2.08-0.67,4-1.34,5.95-1.89c46.93-13.32,68.65-62.54,59.12-102.74
		c-11.91-50.24-60.2-73.62-99.98-67.87c-39.05,5.64-73.44,42.09-73.74,85.82c-0.1,13.82,3.22,26.87,8.39,39.55
		c1.15,2.83,2.32,5.66,3.47,8.49c-5.11-1.81-9.33-4.13-13.36-6.76c-29.65-19.34-56.7-41.72-80.59-67.95
		c-15.4-16.91-29.45-34.83-41.87-53.98c-24.21-37.31-42.83-77.25-55.42-119.95c-11.19-37.93-17.05-76.71-18.29-116.19
		c-0.63-20.03,0.3-40,2.32-59.97c2.62-25.92,7.56-51.35,13.84-76.6c2.48-9.98,8.01-13.87,18.63-13.13c4.36,0.3,8.71,0.62,13.09,0.75
		c20.49,0.61,41.01-0.4,61.48,1.26c7.42,0.6,13.46-2.05,18.21-7.87c5.82-7.14,11.8-14.14,17.75-21.17
		c8.63-10.19,17.29-20.36,25.95-30.53c2.58-3.03,5.42-5.75,9.58-6.31c4.33-0.58,8.68-0.99,13.03-1.46
		c18.06-1.96,36.13-3.89,54.18-5.88c6.17-0.68,11.35-3.39,15.88-7.64c22.19-20.78,44.58-41.35,66.61-62.31
		c5.23-4.98,10.68-6.57,17.54-5.52c30.22,4.64,60.52,8.83,90.67,13.88c10.22,1.71,16.55-1.55,21.83-10.03
		c9.61-15.44,19.82-30.51,29.83-45.71c4.69-7.11,9.52-14.14,14.24-21.23C607.35,88.88,609.25,86.76,606.45,84.33z M779.95,568.54
		c-1.33-83.19-66.1-140.02-138.38-140.12c-70.7-0.1-139.8,57.07-140.03,139.82c-0.22,77.89,63.27,139.54,142.03,139.17
		C721.69,707.07,778.97,644.67,779.95,568.54z M278.03,334.73c-0.12,52.89,36.44,100.67,98.51,100.49
		c59.55-0.17,101.14-50.29,101.19-98.25c0.06-52.33-42.13-99.96-101.09-99.97C320.33,237,277.24,284.59,278.03,334.73z
		 M706.49,335.15c45.32,1.17,86.74-36.12,87.26-85.06c0.52-49.05-36.97-88.4-87.2-89.14c-47.26-0.7-86.42,38.44-86.73,85.64
		C619.49,298.06,660.77,335.92,706.49,335.15z"/>
	<path class="st2" d="M606.45,84.33c2.8,2.42,0.9,4.55-0.48,6.62c-4.73,7.09-9.56,14.11-14.24,21.23
		c-10.01,15.19-20.22,30.26-29.83,45.71c-5.28,8.48-11.61,11.74-21.83,10.03c-30.15-5.05-60.45-9.24-90.67-13.88
		c-6.86-1.05-12.31,0.54-17.54,5.52c-22.02,20.96-44.41,41.53-66.61,62.31c-4.54,4.25-9.71,6.96-15.88,7.64
		c-18.06,1.99-36.12,3.93-54.18,5.88c-4.35,0.47-8.7,0.88-13.03,1.46c-4.16,0.56-7.01,3.28-9.58,6.31
		c-8.66,10.17-17.32,20.34-25.95,30.53c-5.95,7.03-11.93,14.04-17.75,21.17c-4.75,5.83-10.8,8.47-18.21,7.87
		c-20.47-1.66-40.99-0.65-61.48-1.26c-4.37-0.13-8.72-0.44-13.09-0.75c-10.62-0.74-16.15,3.16-18.63,13.13
		c-6.28,25.25-11.22,50.68-13.84,76.6c-2.02,19.97-2.95,39.94-2.32,59.97c1.25,39.47,7.11,78.26,18.29,116.19
		c12.59,42.7,31.21,82.64,55.42,119.95c12.43,19.14,26.47,37.06,41.87,53.98c23.89,26.23,50.93,48.61,80.59,67.95
		c4.02,2.62,8.24,4.95,13.36,6.76c-1.16-2.83-2.32-5.66-3.47-8.49c-5.17-12.68-8.48-25.73-8.39-39.55
		c0.31-43.73,34.69-80.18,73.74-85.82c39.78-5.75,88.07,17.63,99.98,67.87c9.53,40.19-12.19,89.42-59.12,102.74
		c-1.95,0.55-3.87,1.23-5.95,1.89c1.16,2.83,3.69,2.84,5.81,3.31c19.33,4.3,38.8,7.38,58.6,8.87c15.9,1.19,31.8,1.63,47.64,0.66
		c64.88-3.96,126.85-19.05,184.35-50.18c28.89-15.64,55.38-34.66,79.6-56.92c29.55-27.16,54.78-57.79,75.31-92.24
		c21.06-35.33,35.28-73.29,43.07-113.68c5.78-29.97,8.02-60.24,6.56-90.66c-2.73-56.85-14.79-111.54-39.2-163.28
		c-17.51-37.11-39.85-71-66.47-102.17c-36.62-42.87-79.81-77.54-129.42-104.32c-12.18-6.57-24.7-12.38-37.26-18.13
		c-1.39-0.64-3.52-0.89-1.69-3.21c22.6,5.74,44.5,13.66,65.26,24.11C825.31,159.3,907.79,257.66,942.03,394.9
		c9.52,38.14,14.15,76.97,13.49,116.29c-1.37,82.76-26.4,157.89-74.3,225.3c-48.94,68.87-111.06,121.96-188.86,155.99
		c-41.61,18.2-85.08,29.56-130.05,35.58c-33.23,4.44-66.54,6.13-99.97,3.65c-50.77-3.76-99.4-16.14-145.6-37.6
		c-89.83-41.74-158.32-106.5-207.05-192.43C81.5,652.02,61.79,599.21,51.83,542.93c-7.05-39.85-8.76-79.97-6.44-120.41
		c3.27-56.9,16.54-111.35,37.78-164.04c3.55-8.8,4.3-9.13,13.88-8.44c22.75,1.65,45.51,3.13,68.27,4.68
		c7.58,0.52,15.18,0.89,22.75,1.55c10.68,0.93,19.26-2.93,26.52-10.63c12.49-13.24,25.27-26.2,37.71-39.48
		c4.38-4.67,9.21-6.95,15.73-7.13c22.11-0.63,44.2-1.87,66.3-2.61c6.76-0.23,12.44-2.32,17.71-6.55
		c22.99-18.47,46.29-36.56,69.08-55.25c7.7-6.31,15.19-7.96,24.84-5.46c30.96,8,62.1,15.28,93.14,22.96
		c6.33,1.57,10.89-0.01,15.1-5.18c16.16-19.82,32.65-39.37,49.02-59.01C604.25,86.69,605.38,85.53,606.45,84.33z"/>
	<path class="st2" d="M779.95,568.54c-0.98,76.13-58.27,138.53-136.38,138.88c-78.76,0.36-142.25-61.29-142.03-139.17
		c0.23-82.76,69.33-139.92,140.03-139.82C713.85,428.53,778.62,485.36,779.95,568.54z"/>
	<path class="st2" d="M278.03,334.73c-0.79-50.14,42.3-97.73,98.61-97.73c58.97,0,101.15,47.64,101.09,99.97
		c-0.06,47.95-41.65,98.08-101.19,98.25C314.47,435.4,277.91,387.62,278.03,334.73z"/>
	<path class="st2" d="M706.49,335.15c-45.72,0.77-87.01-37.09-86.67-88.56c0.31-47.2,39.47-86.34,86.73-85.64
		c50.23,0.74,87.73,40.09,87.2,89.14C793.24,299.03,751.82,336.32,706.49,335.15z"/>
</g>
</svg>
